<svg xmlns="http://www.w3.org/2000/svg" viewBox="0 0 480 420" fill="none">
  <!-- background glow circles -->
  <circle cx="240" cy="210" r="180" fill="rgba(255,255,255,0.05)"/>
  <circle cx="240" cy="210" r="120" fill="rgba(255,255,255,0.06)"/>

  <!-- central card / dashboard mockup -->
  <rect x="80" y="80" width="320" height="200" rx="18" fill="rgba(255,255,255,0.15)" stroke="rgba(255,255,255,0.3)" stroke-width="1.5"/>

  <!-- card header bar -->
  <rect x="80" y="80" width="320" height="44" rx="18" fill="rgba(255,255,255,0.2)"/>
  <rect x="80" y="106" width="320" height="18" fill="rgba(255,255,255,0.2)"/>
  <!-- dots -->
  <circle cx="104" cy="102" r="6" fill="rgba(255,255,255,0.55)"/>
  <circle cx="122" cy="102" r="6" fill="rgba(255,255,255,0.35)"/>
  <circle cx="140" cy="102" r="6" fill="rgba(255,255,255,0.2)"/>

  <!-- avatar circle -->
  <circle cx="144" cy="172" r="32" fill="rgba(255,255,255,0.18)" stroke="rgba(255,255,255,0.35)" stroke-width="1.5"/>
  <circle cx="144" cy="164" r="12" fill="rgba(255,255,255,0.6)"/>
  <path d="M120 192 q24-16 48 0" fill="rgba(255,255,255,0.5)"/>

  <!-- text lines -->
  <rect x="192" y="148" width="100" height="10" rx="5" fill="rgba(255,255,255,0.55)"/>
  <rect x="192" y="166" width="140" height="8" rx="4" fill="rgba(255,255,255,0.35)"/>
  <rect x="192" y="182" width="110" height="8" rx="4" fill="rgba(255,255,255,0.25)"/>

  <!-- stat pills -->
  <rect x="100" y="224" width="72" height="28" rx="8" fill="rgba(255,255,255,0.2)" stroke="rgba(255,255,255,0.3)" stroke-width="1"/>
  <rect x="184" y="224" width="72" height="28" rx="8" fill="rgba(255,255,255,0.2)" stroke="rgba(255,255,255,0.3)" stroke-width="1"/>
  <rect x="268" y="224" width="72" height="28" rx="8" fill="rgba(255,255,255,0.2)" stroke="rgba(255,255,255,0.3)" stroke-width="1"/>
  <rect x="352" y="224" width="32" height="28" rx="8" fill="rgba(255,255,255,0.2)" stroke="rgba(255,255,255,0.3)" stroke-width="1"/>

  <!-- stat text placeholders -->
  <rect x="112" y="233" width="48" height="8" rx="4" fill="rgba(255,255,255,0.5)"/>
  <rect x="196" y="233" width="48" height="8" rx="4" fill="rgba(255,255,255,0.5)"/>
  <rect x="280" y="233" width="48" height="8" rx="4" fill="rgba(255,255,255,0.5)"/>

  <!-- floating badge top-right -->
  <rect x="310" y="52" width="118" height="40" rx="12" fill="rgba(255,255,255,0.22)" stroke="rgba(255,255,255,0.4)" stroke-width="1"/>
  <circle cx="330" cy="72" r="9" fill="rgba(255,255,255,0.55)"/>
  <rect x="346" y="64" width="68" height="8" rx="4" fill="rgba(255,255,255,0.6)"/>
  <rect x="346" y="76" width="48" height="6" rx="3" fill="rgba(255,255,255,0.35)"/>

  <!-- floating badge bottom-left -->
  <rect x="52" y="308" width="130" height="44" rx="12" fill="rgba(255,255,255,0.18)" stroke="rgba(255,255,255,0.3)" stroke-width="1"/>
  <circle cx="74" cy="330" r="10" fill="rgba(255,255,255,0.5)"/>
  <rect x="92" y="322" width="76" height="8" rx="4" fill="rgba(255,255,255,0.55)"/>
  <rect x="92" y="334" width="55" height="6" rx="3" fill="rgba(255,255,255,0.35)"/>

  <!-- checkmark shield bottom-right -->
  <rect x="348" y="312" width="80" height="44" rx="12" fill="rgba(255,255,255,0.18)" stroke="rgba(255,255,255,0.3)" stroke-width="1"/>
  <path d="M372 334 l8 8 14-14" stroke="rgba(255,255,255,0.85)" stroke-width="2.5" stroke-linecap="round" stroke-linejoin="round" fill="none"/>
  <rect x="394" y="326" width="22" height="7" rx="3.5" fill="rgba(255,255,255,0.5)"/>
  <rect x="394" y="337" width="16" height="6" rx="3" fill="rgba(255,255,255,0.3)"/>

  <!-- connecting dots / network lines -->
  <line x1="144" y1="316" x2="240" y2="280" stroke="rgba(255,255,255,0.15)" stroke-width="1" stroke-dasharray="4 4"/>
  <line x1="340" y1="316" x2="280" y2="280" stroke="rgba(255,255,255,0.15)" stroke-width="1" stroke-dasharray="4 4"/>
  <circle cx="240" cy="280" r="4" fill="rgba(255,255,255,0.3)"/>
</svg>
